<svg viewBox="0 0 240 200" xmlns="http://www.w3.org/2000/svg">
<g fill="none" stroke="#161410" stroke-width="5" stroke-linecap="round" stroke-linejoin="round">
<path d="M46 122c0-24 26-40 58-40s62 12 70 30c4 10-2 20-14 22-30 6-70 6-96-2-10-3-18-6-18-10z" fill="#fff"/>
<path d="M46 122c-10 4-20 2-26-6M96 82c-2-8 0-16 8-22M150 92c6-6 14-8 20-4" />
<circle cx="80" cy="106" r="2.6" fill="#161410"/>
<circle cx="150" cy="112" r="2.6" fill="#161410"/>
<path d="M62 132c-6 8-16 12-26 10M110 136c-4 8-12 12-20 12M158 128c2 8-2 16-10 20" stroke-width="4"/>
</g>
<text x="120" y="176" font-family="'Kalam', cursive" font-weight="700" font-size="24" text-anchor="middle" fill="#161410" letter-spacing="1">SAVE THE PLANET</text>
</svg>
